<svg width="27" height="32" viewBox="0 0 27 32" fill="none" xmlns="http://www.w3.org/2000/svg">
<path fill-rule="evenodd" clip-rule="evenodd" d="M26.3795 8L13.1897 0L0 8V24L13.1897 32L26.3795 24V8ZM25.2803 8.66667L13.1897 1.33333L1.09915 8.66667V23.3333L13.1897 30.6667L25.2803 23.3333V8.66667Z" fill="#FFC000"/>
<path d="M18.2052 8.66667V9.904H14.2656V23.5787H12.8441V9.904H8.88428V8.66667H18.2052Z" fill="#FFC000"/>
<path d="M17.0934 8.66667V19.952C17.0934 21.0898 16.7617 22.0071 16.0983 22.704C15.435 23.3867 14.5482 23.728 13.4381 23.728C12.2874 23.728 11.3668 23.3653 10.6764 22.64C9.99947 21.9004 9.66102 20.9049 9.66102 19.6533H11.1028C11.1164 20.464 11.3059 21.1253 11.6714 21.6373C12.0505 22.1493 12.6394 22.4053 13.4381 22.4053C14.1962 22.4053 14.7581 22.1707 15.1236 21.7013C15.4891 21.232 15.6719 20.6489 15.6719 19.952V8.66667H17.0934Z" fill="#FFC000"/>
</svg>
