<svg width="32" height="32" viewBox="0 0 32 32" fill="none" xmlns="http://www.w3.org/2000/svg">
<path d="M8.57735 28.8564L1.1547 16L8.57735 3.14359L23.4226 3.14359L30.8453 16L23.4226 28.8564L8.57735 28.8564Z" stroke="#FFC000" stroke-width="1"/>
<g clip-path="url(#clip0)">
<path d="M23.7313 15.1526L22.3797 13.921V9.8372C22.3797 9.57735 22.169 9.36667 21.9092 9.36667H18.6556C18.3957 9.36667 18.185 9.57732 18.185 9.8372V10.0989L16.5527 8.61148C16.2376 8.32432 15.7624 8.32435 15.4474 8.61145L8.26874 15.1527C8.01637 15.3827 7.93296 15.737 8.05628 16.0554C8.17962 16.3739 8.47993 16.5796 8.8214 16.5796H9.96793V23.1334C9.96793 23.3932 10.1786 23.6039 10.4385 23.6039H14.3732C14.6331 23.6039 14.8438 23.3932 14.8438 23.1334L14.8438 19.1541H17.1563V23.1334C17.1563 23.3932 17.367 23.6039 17.6268 23.6039H21.5615C21.8213 23.6039 22.032 23.3933 22.032 23.1334V16.5796H23.1787C23.5202 16.5796 23.8205 16.3739 23.9439 16.0555C24.0672 15.737 23.9838 15.3827 23.7313 15.1526ZM21.5615 15.6385C21.3016 15.6385 21.0909 15.8492 21.0909 16.1091V22.6629H18.0974V18.6836C18.0974 18.4237 17.8867 18.213 17.6269 18.213H14.3732C14.1134 18.213 13.9027 18.4237 13.9027 18.6836L13.9027 22.6629H10.909V16.1091C10.909 15.8492 10.6983 15.6385 10.4384 15.6385H9.13271L16.0001 9.38104L18.3387 11.512C18.4765 11.6375 18.6753 11.6699 18.8457 11.5946C19.0162 11.5193 19.1261 11.3505 19.1261 11.1642V10.3077H21.4387V14.1289C21.4387 14.2613 21.4944 14.3875 21.5923 14.4767L22.8674 15.6385L21.5615 15.6385Z" fill="#FFC000"/>
</g>
<defs>
<clipPath id="clip0">
<rect width="16" height="16" fill="white" transform="translate(8 8)"/>
</clipPath>
</defs>
</svg>
