<svg width="32" height="32" viewBox="0 0 32 32" fill="none" xmlns="http://www.w3.org/2000/svg">
<path d="M2.64359 8.28868L16 0.57735L29.3564 8.28868V23.7113L16 31.4227L2.64359 23.7113V8.28868Z" stroke="#FFC000"/>
<path d="M16.6204 24.0313H14.0531C13.6243 24.0313 13.2754 23.6825 13.2754 23.2537V17.4631H11.7776C11.3488 17.4631 11 17.1141 11 16.6854V14.2041C11 13.7753 11.3488 13.4265 11.7776 13.4265H13.2754V12.184C13.2754 10.9519 13.6623 9.90374 14.3941 9.15289C15.1292 8.39861 16.1564 8 17.3648 8L19.3228 8.00318C19.7509 8.00391 20.0991 8.35274 20.0991 8.78082V11.0846C20.0991 11.5135 19.7504 11.8623 19.3217 11.8623L18.0034 11.8628C17.6014 11.8628 17.499 11.9434 17.4771 11.9681C17.441 12.0091 17.3981 12.1249 17.3981 12.4447V13.4264H19.2226C19.36 13.4264 19.493 13.4602 19.6074 13.5241C19.8541 13.6619 20.0075 13.9226 20.0075 14.2043L20.0065 16.6855C20.0065 17.1141 19.6577 17.4629 19.2288 17.4629H17.3981V23.2537C17.3981 23.6825 17.0492 24.0313 16.6204 24.0313ZM14.2153 23.0915H16.4582V17.0423C16.4582 16.756 16.6912 16.5231 16.9774 16.5231H19.0667L19.0675 14.3663H16.9773C16.691 14.3663 16.4582 14.1334 16.4582 13.8471V12.4447C16.4582 12.0775 16.4955 11.66 16.7726 11.3461C17.1075 10.9667 17.6353 10.9229 18.0032 10.9229L19.1592 10.9225V8.94276L17.3641 8.93982C15.4221 8.93982 14.2153 10.183 14.2153 12.184V13.8471C14.2153 14.1333 13.9824 14.3663 13.6962 14.3663H11.9398V16.5231H13.6962C13.9824 16.5231 14.2153 16.756 14.2153 17.0423V23.0915ZM19.3209 8.943H19.3211H19.3209Z" fill="#FFC000"/>
</svg>
