<svg width="32" height="32" viewBox="0 0 32 32" fill="none" xmlns="http://www.w3.org/2000/svg">
<path d="M2.64359 8.28868L16 0.57735L29.3564 8.28868V23.7113L16 31.4227L2.64359 23.7113V8.28868Z" stroke="#FFC000"/>
<path d="M19.3523 8H12.6477C10.085 8 8 10.085 8 12.6477V19.3523C8 21.915 10.085 24 12.6477 24H19.3523C21.915 24 24 21.915 24 19.3523V12.6477C24 10.085 21.915 8 19.3523 8ZM22.75 19.3523C22.75 21.2258 21.2258 22.75 19.3523 22.75H12.6477C10.7742 22.75 9.25 21.2258 9.25 19.3523V12.6477C9.25 10.7742 10.7742 9.25 12.6477 9.25H19.3523C21.2258 9.25 22.75 10.7742 22.75 12.6477V19.3523Z" fill="#FFC000"/>
<path d="M16 11.6875C13.6221 11.6875 11.6875 13.6221 11.6875 16C11.6875 18.3779 13.6221 20.3125 16 20.3125C18.3779 20.3125 20.3125 18.3779 20.3125 16C20.3125 13.6221 18.3779 11.6875 16 11.6875ZM16 19.0625C14.3113 19.0625 12.9375 17.6887 12.9375 16C12.9375 14.3113 14.3113 12.9375 16 12.9375C17.6887 12.9375 19.0625 14.3113 19.0625 16C19.0625 17.6887 17.6887 19.0625 16 19.0625Z" fill="#FFC000"/>
<path d="M20.375 12.25C20.7202 12.25 21 11.9702 21 11.625C21 11.2798 20.7202 11 20.375 11C20.0298 11 19.75 11.2798 19.75 11.625C19.75 11.9702 20.0298 12.25 20.375 12.25Z" fill="#FFC000"/>
</svg>
