<svg width="32" height="32" viewBox="0 0 32 32" fill="none" xmlns="http://www.w3.org/2000/svg">
<path d="M2.64359 8.28868L16 0.57735L29.3564 8.28868V23.7113L16 31.4227L2.64359 23.7113V8.28868Z" stroke="#FFC000"/>
<path d="M10.16 8C9.57334 8 9.04 8.21334 8.64 8.61334C8.21334 9.04 8 9.57331 8 10.1333C8 10.72 8.24 11.2533 8.64 11.6533C9.04 12.0533 9.6 12.2933 10.1333 12.2667C10.1333 12.2667 10.16 12.2667 10.1867 12.2667C10.72 12.2667 11.2267 12.0533 11.6267 11.6533C12.0267 11.2533 12.2667 10.72 12.2667 10.1333C12.2933 9.57331 12.0533 9.03997 11.6533 8.63997C11.2533 8.21331 10.72 8 10.16 8ZM11.2533 11.28C10.96 11.5733 10.56 11.76 10.1333 11.7333C9.73334 11.7333 9.30669 11.5733 9.01334 11.28C8.69334 10.9867 8.53334 10.56 8.53334 10.1333C8.53334 9.70669 8.69334 9.30669 9.01334 8.98669C9.30669 8.69334 9.70669 8.53334 10.16 8.53334C10.56 8.53334 10.96 8.69334 11.2533 8.98669C11.5733 9.30669 11.7333 9.70669 11.7333 10.1333C11.7333 10.56 11.5733 10.9867 11.2533 11.28Z" fill="#FFC000"/>
<path d="M11.2 12.8H9.04001C8.61335 12.8 8.26666 13.1466 8.26666 13.6V22.9333C8.26666 23.36 8.64001 23.7333 9.06666 23.7333H11.2C11.6267 23.7333 12 23.36 12 22.96V13.6C12 13.1733 11.6267 12.8 11.2 12.8ZM11.4667 22.96C11.4667 23.0933 11.3333 23.2 11.2 23.2H9.06666C8.93332 23.2 8.80001 23.0666 8.80001 22.9333V13.6C8.80001 13.4666 8.90666 13.3333 9.04001 13.3333H11.2C11.3334 13.3333 11.4667 13.4667 11.4667 13.6V22.96Z" fill="#FFC000"/>
<path d="M20.2666 12.5333H19.7066C18.6666 12.5333 17.68 12.9867 17.04 13.7067V13.3333C17.04 13.0667 16.7733 12.8 16.5066 12.8H13.84C13.6 12.8 13.3066 13.0133 13.3066 13.3066V23.2533C13.3066 23.5466 13.6 23.7333 13.84 23.7333H16.7733C17.0133 23.7333 17.3067 23.5466 17.3067 23.2533V17.4933C17.3067 16.6133 17.9467 15.92 18.7733 15.92C19.2 15.92 19.6 16.08 19.8933 16.3733C20.16 16.6133 20.2667 16.9866 20.2667 17.4666V23.2C20.2667 23.4666 20.5333 23.7333 20.8 23.7333H23.4667C23.7333 23.7333 24 23.4667 24 23.2V16.32C24 14.1867 22.3733 12.5333 20.2666 12.5333ZM23.4666 23.1733L23.44 23.2H20.8266L20.8 17.4667C20.8 16.8267 20.64 16.3467 20.2933 16C19.8933 15.6 19.36 15.3867 18.8 15.3867C17.68 15.4133 16.8 16.32 16.8 17.4933V23.2H13.8666V13.3333H16.5066L16.5333 13.36V15.04L17.2533 14.32L17.28 14.2933C17.8133 13.5467 18.7466 13.0667 19.7333 13.0667H20.2933C22.08 13.0667 23.4666 14.5067 23.4666 16.32V23.1733Z" fill="#FFC000"/>
</svg>
