<svg width="32" height="32" viewBox="0 0 32 32" fill="none" xmlns="http://www.w3.org/2000/svg">
<path d="M2.64359 8.28868L16 0.57735L29.3564 8.28868V23.7113L16 31.4227L2.64359 23.7113V8.28868Z" stroke="#FFC000"/>
<path d="M24 10.7489C22.9935 10.7953 23.0155 10.7915 22.9017 10.801L23.4978 9.09874C23.4978 9.09874 21.6372 9.78319 21.1655 9.90563C19.9268 8.79222 18.0854 8.74303 16.769 9.55211C15.691 10.2148 15.1124 11.3529 15.3054 12.6831C13.2074 12.392 11.4397 11.3974 10.0441 9.72094L9.60266 9.19078L9.27283 9.7965C8.85596 10.5619 8.71753 11.437 8.88293 12.2606C8.95081 12.5985 9.06616 12.9208 9.22595 13.2225L8.84729 13.0758L8.80237 13.7085C8.75684 14.3512 8.97083 15.1014 9.37488 15.7152C9.48865 15.888 9.63513 16.0779 9.8208 16.2651L9.62512 16.2351L9.86389 16.9601C10.1777 17.9126 10.8296 18.6495 11.6755 19.0592C10.8307 19.4177 10.1482 19.6465 9.02637 20.0155L8 20.3529L8.948 20.8712C9.30945 21.0688 10.5867 21.7289 11.8486 21.9269C14.6538 22.3668 17.8121 22.0085 19.9384 20.0936C21.7292 18.4807 22.3169 16.1864 22.1948 13.7988C22.1764 13.4374 22.2754 13.0924 22.4736 12.8276C22.8707 12.2975 23.9976 10.7524 24 10.7489ZM21.724 12.2661C21.3948 12.7057 21.2299 13.2671 21.2594 13.8467C21.3826 16.255 20.7273 18.1227 19.3116 19.3976C17.658 20.887 14.9906 21.4715 11.9938 21.0015C11.451 20.9164 10.8901 20.7258 10.4259 20.5355C11.3665 20.2119 12.0928 19.9234 13.2657 19.3683L14.9032 18.5932L13.0953 18.4775C12.2294 18.4221 11.5083 18.0024 11.0651 17.321C11.3004 17.3074 11.5273 17.2693 11.7533 17.2063L13.4775 16.7261L11.7389 16.3003C10.894 16.0934 10.4125 15.5879 10.1572 15.2002C9.98962 14.9454 9.88013 14.6844 9.81445 14.4438C9.98877 14.4906 10.192 14.5239 10.5198 14.5564L12.129 14.7156L10.854 13.7209C9.9353 13.0044 9.56714 11.9278 9.83704 10.8929C12.7042 13.8668 16.0707 13.6433 16.4095 13.7219C16.335 12.9974 16.333 12.9957 16.3135 12.9267C15.8795 11.3927 16.8306 10.6138 17.2595 10.3501C18.1555 9.79943 19.5778 9.71642 20.5629 10.6236C20.7756 10.8194 21.0634 10.8965 21.3326 10.8296C21.5743 10.7695 21.7727 10.7059 21.9669 10.6367L21.5626 11.7912L22.0787 11.7916C21.9813 11.9222 21.8645 12.0786 21.724 12.2661Z" fill="#FFC000"/>
</svg>
